<svg xmlns="http://www.w3.org/2000/svg" xmlns:xlink="http://www.w3.org/1999/xlink" width="4608" zoomAndPan="magnify" viewBox="0 0 3456 3455.999975" height="4608" preserveAspectRatio="xMidYMid meet" version="1.0"><defs><clipPath id="ed1cc37879"><path d="M 258.675781 258.675781 L 3197.175781 258.675781 L 3197.175781 3197.175781 L 258.675781 3197.175781 Z M 258.675781 258.675781 " clip-rule="nonzero"/></clipPath></defs><g clip-path="url(#ed1cc37879)"><path fill="#ffffff" d="M 1059.109375 836.148438 L 1462.671875 836.148438 L 1386.863281 486.097656 C 1335.582031 474.949219 1297.679688 428.125 1297.679688 374.617188 C 1297.679688 309.957031 1348.960938 258.675781 1413.617188 258.675781 C 1478.277344 258.675781 1529.558594 309.957031 1529.558594 374.617188 C 1529.558594 428.125 1491.65625 474.949219 1440.375 486.097656 L 1516.179688 836.148438 L 1919.742188 836.148438 L 1843.933594 486.097656 C 1794.882812 472.71875 1756.980469 428.125 1756.980469 374.617188 C 1756.980469 309.957031 1808.261719 258.675781 1872.921875 258.675781 C 1935.351562 258.675781 1988.859375 309.957031 1988.859375 374.617188 C 1988.859375 430.355469 1948.726562 474.949219 1897.445312 486.097656 L 1973.253906 836.148438 L 2401.339844 836.148438 C 2508.363281 836.148438 2599.777344 916.414062 2615.382812 1021.207031 L 2967.664062 945.398438 C 2972.125 885.199219 3021.175781 838.375 3083.605469 838.375 C 3146.035156 838.375 3197.316406 889.65625 3197.316406 954.316406 C 3197.316406 1018.976562 3146.035156 1070.257812 3083.605469 1070.257812 C 3034.554688 1070.257812 2992.191406 1039.042969 2974.351562 996.679688 L 2617.613281 1074.714844 L 2617.613281 1476.046875 L 2967.664062 1402.46875 C 2972.125 1344.5 3023.40625 1297.679688 3083.605469 1297.679688 C 3146.035156 1297.679688 3197.316406 1348.960938 3197.316406 1413.617188 C 3197.316406 1478.277344 3146.035156 1529.558594 3083.605469 1529.558594 C 3032.324219 1529.558594 2989.960938 1498.34375 2974.351562 1453.75 L 2617.613281 1529.558594 L 2617.613281 1933.121094 L 2967.664062 1859.542969 C 2974.351562 1801.574219 3023.40625 1756.980469 3083.605469 1756.980469 C 3146.035156 1756.980469 3197.316406 1808.261719 3197.316406 1872.921875 C 3197.316406 1935.351562 3146.035156 1988.859375 3083.605469 1988.859375 C 3032.324219 1988.859375 2989.960938 1955.417969 2974.351562 1910.824219 L 2617.613281 1986.632812 L 2617.613281 2399.109375 C 2617.613281 2506.132812 2537.347656 2597.546875 2432.554688 2613.15625 L 2508.363281 2967.664062 C 2568.5625 2969.894531 2617.613281 3021.175781 2617.613281 3083.605469 C 2617.613281 3146.035156 2566.332031 3197.316406 2501.671875 3197.316406 C 2439.246094 3197.316406 2387.964844 3146.035156 2387.964844 3083.605469 C 2387.964844 3034.554688 2414.71875 2994.421875 2457.082031 2976.582031 L 2379.042969 2615.382812 L 1975.484375 2615.382812 L 2051.289062 2967.664062 C 2111.488281 2972.125 2158.3125 3021.175781 2158.3125 3083.605469 C 2158.3125 3146.035156 2107.03125 3197.316406 2042.371094 3197.316406 C 1979.941406 3197.316406 1928.660156 3146.035156 1928.660156 3083.605469 C 1928.660156 3034.554688 1957.644531 2992.191406 2000.007812 2976.582031 L 1921.972656 2615.382812 L 1518.410156 2615.382812 L 1594.21875 2967.664062 C 1654.417969 2972.125 1699.011719 3021.175781 1699.011719 3083.605469 C 1699.011719 3146.035156 1647.730469 3197.316406 1583.070312 3197.316406 C 1520.640625 3197.316406 1469.359375 3146.035156 1469.359375 3083.605469 C 1469.359375 3032.324219 1500.574219 2992.191406 1542.9375 2974.351562 L 1464.898438 2615.382812 L 1056.878906 2615.382812 C 956.546875 2615.382812 871.820312 2546.265625 845.066406 2454.851562 L 486.097656 2530.660156 C 472.71875 2581.941406 428.125 2617.613281 374.617188 2617.613281 C 309.957031 2617.613281 258.675781 2566.332031 258.675781 2501.671875 C 258.675781 2439.246094 309.957031 2387.964844 374.617188 2387.964844 C 430.355469 2387.964844 474.949219 2425.867188 486.097656 2477.148438 L 838.375 2403.570312 C 838.375 2401.339844 838.375 2399.109375 838.375 2399.109375 L 838.375 2000.007812 L 486.097656 2075.816406 C 470.488281 2122.636719 425.898438 2158.3125 374.617188 2158.3125 C 309.957031 2158.3125 258.675781 2107.03125 258.675781 2042.371094 C 258.675781 1979.941406 309.957031 1928.660156 374.617188 1928.660156 C 430.355469 1928.660156 477.179688 1968.792969 488.324219 2022.304688 L 838.375 1946.5 L 838.375 1542.9375 L 483.867188 1618.742188 C 470.488281 1665.566406 425.898438 1699.011719 374.617188 1699.011719 C 309.957031 1699.011719 258.675781 1647.730469 258.675781 1583.070312 C 258.675781 1520.640625 309.957031 1469.359375 374.617188 1469.359375 C 430.355469 1469.359375 479.40625 1509.492188 488.324219 1565.234375 L 838.375 1489.425781 L 838.375 1052.421875 C 838.375 949.859375 911.953125 865.132812 1007.828125 842.835938 L 932.019531 488.324219 C 878.507812 477.179688 838.375 430.355469 838.375 374.617188 C 838.375 309.957031 889.65625 258.675781 954.316406 258.675781 C 1018.976562 258.675781 1070.257812 309.957031 1070.257812 374.617188 C 1070.257812 428.125 1032.351562 472.71875 983.300781 486.097656 Z M 1103.703125 896.347656 L 2352.289062 896.347656 C 2461.539062 896.347656 2550.726562 985.53125 2550.726562 1094.78125 L 2550.726562 2356.75 C 2550.726562 2466 2461.539062 2555.183594 2352.289062 2555.183594 L 1103.703125 2555.183594 C 994.449219 2555.183594 905.265625 2466 905.265625 2356.75 L 905.265625 1094.78125 C 905.265625 985.53125 994.449219 896.347656 1103.703125 896.347656 Z M 1103.703125 896.347656 " fill-opacity="1" fill-rule="evenodd"/></g><path fill="#ffffff" d="M 2020.074219 2147.164062 L 1839.476562 2147.164062 L 1765.898438 1955.417969 L 1431.457031 1955.417969 L 1362.335938 2147.164062 L 1181.738281 2147.164062 L 1507.261719 1311.054688 L 1685.632812 1311.054688 Z M 1712.386719 1814.949219 L 1594.21875 1505.035156 L 1482.738281 1814.949219 Z M 2104.800781 2147.164062 L 2104.800781 1311.054688 L 2274.253906 1311.054688 L 2274.253906 2147.164062 Z M 2104.800781 2147.164062 " fill-opacity="1" fill-rule="nonzero"/></svg>