<svg xmlns="http://www.w3.org/2000/svg" xmlns:xlink="http://www.w3.org/1999/xlink" width="4608" zoomAndPan="magnify" viewBox="0 0 3456 3455.999975" height="4608" preserveAspectRatio="xMidYMid meet" version="1.0"><path stroke-linecap="butt" transform="matrix(-0.0784021, 13.10421, -13.10421, -0.0784021, 1080.601952, 1047.749353)" fill="none" stroke-linejoin="miter" d="M 0.0000912242 1.999923 L 100.286329 1.999971 " stroke="#ffffff" stroke-width="4" stroke-opacity="1" stroke-miterlimit="4"/><path stroke-linecap="butt" transform="matrix(0.0504573, 13.104347, -13.104347, 0.0504573, 2430.36083, 1050.146761)" fill="none" stroke-linejoin="miter" d="M -0.000120626 1.999984 L 103.885375 1.999953 " stroke="#ffffff" stroke-width="4" stroke-opacity="1" stroke-miterlimit="4"/><path stroke-linecap="butt" transform="matrix(0.0068502, 13.104443, -13.104443, 0.0068502, 1988.131547, 822.49014)" fill="none" stroke-linejoin="miter" d="M 0.0000050112 2.00006 L 137.905879 2.000012 " stroke="#ffffff" stroke-width="4" stroke-opacity="1" stroke-miterlimit="4"/><path stroke-linecap="butt" transform="matrix(0, 13.104444, -13.104444, 0, 1545.190593, 822.4623)" fill="none" stroke-linejoin="miter" d="M -0.000103956 2.000094 L 140.212054 2.000094 " stroke="#ffffff" stroke-width="4" stroke-opacity="1" stroke-miterlimit="4"/><path stroke-linecap="butt" transform="matrix(-13.104169, 0.0848897, -0.0848897, -13.104169, 1989.052187, 2655.791922)" fill="none" stroke-linejoin="miter" d="M -0.0000316416 2.000118 L 37.840085 1.999919 " stroke="#ffffff" stroke-width="4" stroke-opacity="1" stroke-miterlimit="4"/><path stroke-linecap="butt" transform="matrix(-13.104444, 0, 0, -13.104444, 1989.182963, 848.613467)" fill="none" stroke-linejoin="miter" d="M -0.0000481151 1.999872 L 37.876834 1.999872 " stroke="#ffffff" stroke-width="4" stroke-opacity="1" stroke-miterlimit="4"/><path stroke-linecap="butt" transform="matrix(-13.104444, 0, 0, -13.104444, 1521.588226, 1099.976542)" fill="none" stroke-linejoin="miter" d="M -0.000123443 1.999857 L 35.072068 1.999857 " stroke="#ffffff" stroke-width="4" stroke-opacity="1" stroke-miterlimit="4"/><path stroke-linecap="butt" transform="matrix(-13.104444, 0.0000000228716, -0.0000000228716, -13.104444, 2431.655054, 2414.150838)" fill="none" stroke-linejoin="miter" d="M -0.0000913015 2.000042 L 35.774689 2.000042 " stroke="#ffffff" stroke-width="4" stroke-opacity="1" stroke-miterlimit="4"/><path stroke-linecap="butt" transform="matrix(-13.104444, 0, 0, -13.104444, 2431.693718, 1099.976542)" fill="none" stroke-linejoin="miter" d="M -0.000121708 1.999857 L 35.646779 1.999857 " stroke="#ffffff" stroke-width="4" stroke-opacity="1" stroke-miterlimit="4"/><path stroke-linecap="butt" transform="matrix(-13.104438, 0.0132252, -0.0132252, -13.104438, 1511.594003, 2412.592254)" fill="none" stroke-linejoin="miter" d="M 0.0000874081 2.000043 L 37.499014 2.000031 " stroke="#ffffff" stroke-width="4" stroke-opacity="1" stroke-miterlimit="4"/></svg>