<svg xmlns="http://www.w3.org/2000/svg" xmlns:xlink="http://www.w3.org/1999/xlink" width="4608" zoomAndPan="magnify" viewBox="0 0 3456 3455.999975" height="4608" preserveAspectRatio="xMidYMid meet" version="1.0"><defs><clipPath id="1612fd0fcd"><path d="M 420 654 L 3038.367188 654 L 3038.367188 2685 L 420 2685 Z M 420 654 " clip-rule="nonzero"/></clipPath></defs><path fill="#c45b52" d="M 2029.832031 2089.292969 L 1720.714844 2076.316406 C 1720.714844 2076.316406 1321.21875 2220.199219 1181.074219 2002.476562 C 1005.121094 1729.121094 1199.519531 1584.734375 1304.398438 1507.675781 C 1387.078125 1446.929688 1369.082031 1314.253906 1359.9375 1223.988281 C 1339.628906 1023.53125 1400.339844 871.429688 1513.894531 798.242188 C 1650.6875 710.085938 1782.539062 754.253906 1782.539062 754.253906 C 1782.539062 754.253906 1926.292969 735.597656 2010.558594 867.558594 C 2068.023438 957.546875 2088.429688 1078.105469 2094.382812 1204.351562 C 2116.410156 1671.203125 2294.136719 1542.238281 2322.414062 1799.886719 C 2346.585938 2020.125 2029.832031 2089.292969 2029.832031 2089.292969 Z M 2029.832031 2089.292969 " fill-opacity="1" fill-rule="nonzero"/><path fill="#feac7c" d="M 2962.492188 2793.257812 L 2964.722656 2702.804688 C 2964.910156 2695.171875 2957.371094 2688.882812 2947.960938 2688.828125 L 546.609375 2674.890625 C 536.980469 2674.835938 529.246094 2681.3125 529.613281 2689.121094 L 534.121094 2784.210938 C 534.46875 2791.546875 541.871094 2797.355469 550.914062 2797.390625 L 2945.527344 2806.6875 C 2954.753906 2806.722656 2962.308594 2800.746094 2962.492188 2793.257812 Z M 954.222656 2246.324219 C 908.488281 2251.097656 839.144531 2345.300781 900.351562 2443.589844 C 903.59375 2454.613281 907.902344 2467.164062 912.652344 2478.859375 C 920.972656 2489.722656 946.582031 2517.707031 995.152344 2526.480469 C 1055.859375 2537.441406 1137.589844 2539.128906 1168.664062 2507.503906 C 1193.652344 2482.074219 1165.871094 2453.523438 1150.992188 2443.878906 C 1148.980469 2442.613281 1139.65625 2430.042969 1137.636719 2428.953125 C 1113.390625 2369.859375 1062.492188 2283.046875 1024.132812 2278.921875 C 1004.414062 2245.761719 975.835938 2244.070312 954.222656 2246.324219 Z M 1556.050781 1564.898438 C 1565.476562 1595.53125 1640.886719 1654.445312 1768.136719 1647.375 C 1895.390625 1640.304688 1961.371094 1586.105469 1973.15625 1543.6875 C 1931.523438 1535.046875 1895.390625 1511.875 1894.210938 1462.390625 C 1894.210938 1462.390625 1889.996094 1309.03125 1908.292969 1260.234375 C 1977.101562 1280.058594 2012.332031 1167.730469 1967.953125 1140.53125 C 1932.5 1118.800781 1909.628906 1146.25 1909.628906 1146.25 C 1817.625 1181.964844 1733.96875 952.273438 1733.96875 915.675781 C 1697.441406 992.265625 1607.894531 1095.164062 1455.019531 1146.25 C 1458.574219 1191.890625 1460.246094 1247.125 1480.179688 1289.210938 C 1541.9375 1419.585938 1653.636719 1412.726562 1653.636719 1412.726562 C 1653.636719 1412.726562 1654.59375 1428.386719 1655.738281 1479.277344 C 1655.738281 1509.90625 1632.246094 1545.261719 1556.050781 1564.898438 Z M 2351.53125 1547.515625 C 2361.777344 1537.332031 2388.605469 1546.292969 2400.527344 1613.917969 C 2402.945312 1609.332031 2406.0625 1604.21875 2409.75 1598.808594 C 2410.46875 1589.601562 2411.003906 1579.113281 2411.117188 1567.484375 C 2411.546875 1523.890625 2380.042969 1463.453125 2399.003906 1440.121094 C 2418.109375 1416.613281 2439.925781 1471.253906 2450.425781 1493.015625 C 2456.410156 1505.421875 2459.382812 1519.109375 2460.890625 1542.863281 C 2475.839844 1531.203125 2489.789062 1525.203125 2499.09375 1529.972656 C 2534.730469 1548.238281 2510.609375 1622.882812 2510.609375 1622.882812 C 2511.09375 1621.113281 2511.554688 1619.363281 2512.078125 1617.539062 C 2513.539062 1612.46875 2515.496094 1607.226562 2519.332031 1603.597656 C 2532.257812 1591.367188 2545.804688 1596.515625 2551.84375 1603.195312 C 2558.390625 1610.441406 2564.109375 1620.96875 2562.90625 1634.84375 C 2563.417969 1633.578125 2563.90625 1632.335938 2564.449219 1631.042969 C 2578.3125 1610.667969 2597.210938 1624.960938 2602.492188 1631.484375 C 2607.4375 1637.59375 2613.269531 1663.90625 2611.726562 1683.691406 C 2607.027344 1743.816406 2559.894531 1909.910156 2559.894531 1909.910156 L 2553.90625 1968.648438 C 2553.90625 1968.648438 2460.429688 1949.796875 2384.042969 1921.199219 C 2383.664062 1914.585938 2382.714844 1900.191406 2381.730469 1894.234375 C 2376.78125 1864.167969 2326.460938 1744.273438 2331.277344 1715.164062 C 2333.792969 1699.953125 2342.027344 1667.039062 2349.816406 1633.445312 C 2356.941406 1602.738281 2340.066406 1558.902344 2351.53125 1547.515625 Z M 2351.53125 1547.515625 " fill-opacity="1" fill-rule="nonzero"/><path fill="#3e4095" d="M 1771.28125 1640.308594 C 1940.949219 1640.308594 1973.15625 1543.691406 1973.15625 1543.691406 C 1973.15625 1543.691406 2145.441406 1594.746094 2198.855469 1645.019531 C 2252.273438 1695.292969 2344.175781 2025.203125 2344.175781 2025.203125 L 2384.046875 1921.199219 C 2384.046875 1921.199219 2552.335938 1959.027344 2614.78125 1974.933594 C 2597.5 2119.464844 2513.84375 2510.648438 2363.8125 2502.792969 C 2199.746094 2494.203125 2121.089844 2260.070312 2121.089844 2260.070312 C 2121.089844 2260.070312 2106.953125 2554.636719 2090.457031 2562.492188 C 2063.546875 2575.304688 1456.945312 2562.492188 1441.234375 2559.347656 C 1425.527344 2556.207031 1431.417969 2523.214844 1428.273438 2463.515625 C 1310.054688 2605.695312 1107.003906 2626.902344 1107.003906 2626.902344 L 1187.910156 2504.363281 L 1169.058594 2428.5625 L 1187.910156 2028.347656 C 1187.910156 2028.347656 1220.96875 1789.039062 1286.882812 1682.722656 C 1335.585938 1604.171875 1556.050781 1564.898438 1556.050781 1564.898438 C 1556.050781 1564.898438 1601.609375 1640.308594 1771.28125 1640.308594 Z M 1771.28125 1640.308594 C 1940.949219 1640.308594 1973.15625 1543.691406 1973.15625 1543.691406 C 1973.15625 1543.691406 2145.441406 1594.746094 2198.855469 1645.019531 C 2252.273438 1695.292969 2344.175781 2025.203125 2344.175781 2025.203125 L 2384.046875 1921.199219 C 2384.046875 1921.199219 2552.335938 1959.027344 2614.78125 1974.933594 C 2597.5 2119.464844 2513.84375 2510.648438 2363.8125 2502.792969 C 2199.746094 2494.203125 2121.089844 2260.070312 2121.089844 2260.070312 C 2121.089844 2260.070312 2106.953125 2554.636719 2090.457031 2562.492188 C 2063.546875 2575.304688 1456.945312 2562.492188 1441.234375 2559.347656 C 1425.527344 2556.207031 1431.417969 2523.214844 1428.273438 2463.515625 C 1310.054688 2605.695312 1107.003906 2626.902344 1107.003906 2626.902344 L 1187.910156 2504.363281 L 1169.058594 2428.5625 L 1187.910156 2028.347656 C 1187.910156 2028.347656 1220.96875 1789.039062 1286.882812 1682.722656 C 1335.585938 1604.171875 1556.050781 1564.898438 1556.050781 1564.898438 C 1556.050781 1564.898438 1601.609375 1640.308594 1771.28125 1640.308594 Z M 2837.472656 727.15625 L 2809.195312 735.402344 L 2805.660156 820.238281 L 2769.132812 861.476562 C 2769.132812 861.476562 2776.203125 912.144531 2780.917969 915.675781 C 2785.628906 919.210938 2822.15625 939.242188 2822.15625 939.242188 L 2885.78125 919.210938 L 2905.8125 893.289062 C 2905.8125 893.289062 2906.992188 840.269531 2899.921875 840.269531 C 2892.851562 840.269531 2866.929688 814.347656 2866.929688 814.347656 L 2876.355469 729.511719 Z M 2837.472656 727.15625 " fill-opacity="1" fill-rule="nonzero"/><g clip-path="url(#1612fd0fcd)"><path fill="#f3d4b7" d="M 2680.371094 655.28125 C 2478.96875 649.6875 2271.90625 696.128906 2275.050781 824.953125 C 2276.800781 896.691406 2314.339844 938.230469 2374.566406 962.257812 L 2349.671875 1053.535156 L 2456.605469 983.425781 C 2517.074219 992.945312 2588.53125 994.621094 2664.660156 994.621094 C 2872.035156 994.621094 3038.5625 969.484375 3038.5625 834.378906 C 3038.5625 699.269531 2906.597656 661.566406 2680.371094 655.28125 Z M 2842.699219 922.898438 C 2830.164062 923.554688 2780.277344 927.296875 2782.988281 878.03125 C 2784.964844 842.070312 2822.90625 835.800781 2822.90625 835.800781 L 2823.8125 748.03125 C 2823.859375 743.503906 2827.601562 739.894531 2832.125 740.011719 L 2854.433594 740.582031 C 2858.890625 740.699219 2862.421875 744.394531 2862.328125 748.851562 L 2860.515625 837.78125 C 2860.515625 837.78125 2896.144531 846.03125 2894.164062 885.289062 C 2892.171875 924.824219 2852.78125 922.367188 2842.699219 922.898438 Z M 1937.453125 2397.535156 L 1454.785156 2397.535156 C 1449.015625 2397.535156 1443.808594 2394.085938 1441.5625 2388.773438 L 1206.296875 1833.003906 C 1200.789062 1819.996094 1188.039062 1811.546875 1173.914062 1811.546875 L 435.25 1811.546875 C 424.96875 1811.546875 418.019531 1822.035156 422.027344 1831.503906 L 676.984375 2433.988281 C 679.230469 2439.300781 684.4375 2442.75 690.207031 2442.75 L 900.347656 2443.589844 C 868.414062 2333.589844 908.289062 2259.125 953.859375 2254.367188 C 975.476562 2252.113281 999.480469 2263.152344 1019.195312 2296.3125 C 1057.554688 2300.4375 1107.515625 2381.242188 1131.761719 2440.339844 C 1133.78125 2441.425781 1135.789062 2442.746094 1137.800781 2444.015625 C 1138.058594 2444.183594 1138.335938 2444.367188 1138.605469 2444.542969 L 1378.714844 2445.503906 L 1465.574219 2445.503906 L 1953.558594 2446.800781 C 1961.488281 2446.800781 1971.058594 2439.074219 1971.058594 2431.144531 C 1971.0625 2412.582031 1956.011719 2397.535156 1937.453125 2397.535156 Z M 2479.871094 1764.023438 L 2466.355469 1711.59375 C 2463.023438 1713.320312 2459.796875 1713.207031 2457.050781 1709.980469 C 2449.441406 1701.042969 2453.636719 1688.003906 2457.796875 1679.554688 L 2443.863281 1627.390625 C 2443.59375 1627.566406 2443.328125 1627.757812 2443.054688 1627.929688 C 2419.210938 1643.003906 2392.207031 1632.117188 2397.570312 1616.417969 C 2401.960938 1603.570312 2415.414062 1585.988281 2428.714844 1570.6875 L 2383.890625 1406.574219 C 2387.082031 1405.699219 2388.980469 1402.417969 2388.125 1399.214844 C 2387.265625 1396 2383.976562 1394.09375 2380.75 1394.949219 L 2338.246094 1406.296875 C 2335.039062 1407.160156 2333.125 1410.457031 2333.984375 1413.671875 C 2334.519531 1415.671875 2336.003906 1417.167969 2337.824219 1417.804688 C 2338.925781 1418.1875 2340.144531 1418.257812 2341.359375 1417.9375 L 2341.371094 1417.933594 L 2440.523438 1787.171875 L 2441.289062 1788.109375 C 2450.203125 1799.089844 2464.871094 1798.859375 2474.496094 1791.574219 C 2486.382812 1782.574219 2479.871094 1764.023438 2479.871094 1764.023438 Z M 2379.878906 2684.246094 L 2056.097656 2684.246094 C 2056.097656 2684.246094 2036.796875 2266.375 2038.941406 2259.292969 C 2041.085938 2252.210938 2416.441406 2267.140625 2416.441406 2267.140625 Z M 2379.878906 2684.246094 L 2030.757812 2684.246094 C 2030.757812 2684.246094 2034.6875 2632.402344 2050.707031 2565.214844 C 2045.1875 2441.304688 2037.566406 2263.839844 2038.941406 2259.292969 C 2041.085938 2252.210938 2416.441406 2267.140625 2416.441406 2267.140625 Z M 2379.878906 2684.246094 " fill-opacity="1" fill-rule="nonzero"/></g><path fill="#000000" d="M 2418.230469 844.121094 C 2418.523438 844.125 2418.816406 844.128906 2419.113281 844.128906 C 2439.496094 844.125 2458.238281 833.75 2471.957031 820.644531 C 2482.855469 832.960938 2498.90625 842.761719 2517.601562 843.292969 C 2537.949219 843.953125 2556.691406 833.5625 2569.917969 820.273438 C 2580.386719 831.578125 2595.308594 840.28125 2612.851562 840.910156 C 2635.769531 841.753906 2653.796875 832.578125 2665.929688 821.007812 C 2677.660156 831.015625 2694.214844 838.332031 2714.605469 838.632812 C 2717.078125 838.878906 2719.15625 836.675781 2719.1875 834.183594 C 2719.222656 831.691406 2717.230469 829.636719 2714.734375 829.601562 C 2696.308594 829.328125 2682.066406 822.792969 2672.117188 814.304688 C 2673.925781 812.070312 2675.527344 809.800781 2676.921875 807.546875 C 2684.71875 794.898438 2686.6875 781.800781 2682.066406 773.371094 C 2678.984375 767.757812 2673.234375 764.605469 2665.863281 764.496094 C 2653.859375 764.289062 2646.199219 771.851562 2646.023438 783.679688 C 2645.878906 793.375 2650.601562 804.792969 2659.464844 814.703125 C 2648.875 824.707031 2633.054688 832.585938 2613.183594 831.886719 C 2597.421875 831.316406 2584.707031 823.335938 2575.984375 813.523438 C 2578.261719 810.703125 2580.289062 807.816406 2582.054688 804.929688 C 2589.773438 792.253906 2591.925781 780.222656 2587.804688 772.75 C 2585.894531 769.292969 2581.804688 765.144531 2573.160156 765.015625 C 2561.476562 764.851562 2553.984375 772.105469 2553.683594 783.96875 C 2553.460938 792.8125 2557.28125 803.515625 2564.203125 813.246094 C 2552.523438 825.308594 2535.792969 834.683594 2517.863281 834.261719 C 2502.101562 833.816406 2487.875 824.894531 2478.304688 814.003906 C 2488.421875 802.355469 2494.574219 789.664062 2494.707031 780.539062 C 2494.835938 771.808594 2489.585938 766.304688 2481.003906 766.179688 C 2466.347656 765.976562 2457.144531 773.574219 2456.863281 786.546875 C 2456.6875 794.621094 2460.1875 804.4375 2466.472656 813.617188 C 2454.363281 825.519531 2437.457031 835.398438 2418.359375 835.089844 C 2416.066406 835.144531 2413.820312 837.042969 2413.777344 839.539062 C 2413.742188 842.03125 2415.734375 844.085938 2418.230469 844.121094 Z M 2655.054688 783.808594 C 2655.152344 776.984375 2658.648438 773.527344 2665.429688 773.527344 C 2665.527344 773.527344 2665.628906 773.527344 2665.734375 773.53125 C 2669.878906 773.589844 2672.632812 774.960938 2674.144531 777.714844 C 2677.121094 783.132812 2675.144531 793.214844 2669.226562 802.808594 C 2668.179688 804.503906 2667 806.203125 2665.679688 807.890625 C 2658.53125 799.542969 2654.953125 790.4375 2655.054688 783.808594 Z M 2562.714844 784.199219 C 2562.886719 777.371094 2566.167969 774.046875 2572.738281 774.046875 C 2572.832031 774.046875 2572.929688 774.046875 2573.03125 774.050781 C 2578.242188 774.125 2579.484375 776.375 2579.894531 777.113281 C 2581.910156 780.773438 2580.976562 789.335938 2574.335938 800.226562 C 2573.136719 802.195312 2571.796875 804.164062 2570.324219 806.109375 C 2565.238281 798.257812 2562.5625 790.148438 2562.714844 784.199219 Z M 2465.894531 786.742188 C 2466.058594 779.085938 2470.921875 775.207031 2480.351562 775.207031 C 2480.519531 775.207031 2480.699219 775.207031 2480.875 775.210938 C 2483.960938 775.253906 2485.738281 776.121094 2485.671875 780.40625 C 2485.578125 786.851562 2480.84375 796.949219 2472.789062 806.730469 C 2468.292969 799.792969 2465.765625 792.648438 2465.894531 786.742188 Z M 1812.011719 2753.726562 C 1746.109375 2754.371094 1680.203125 2754.519531 1614.300781 2754.578125 C 1528.734375 2754.660156 1443.167969 2754.511719 1357.601562 2754.257812 C 1264.289062 2753.984375 1170.976562 2753.578125 1077.664062 2753.070312 C 987.871094 2752.582031 898.074219 2752 808.28125 2751.308594 C 733.316406 2750.734375 658.351562 2750.085938 583.386719 2749.269531 C 575.773438 2749.1875 568.164062 2749.101562 560.554688 2749.015625 C 554.738281 2748.949219 554.738281 2757.980469 560.554688 2758.046875 C 632.855469 2758.878906 705.160156 2759.523438 777.460938 2760.101562 C 866.316406 2760.8125 955.171875 2761.410156 1044.03125 2761.914062 C 1137.527344 2762.449219 1231.027344 2762.882812 1324.523438 2763.1875 C 1411.414062 2763.476562 1498.304688 2763.65625 1585.195312 2763.632812 C 1654.144531 2763.609375 1723.097656 2763.496094 1792.042969 2762.941406 C 1798.699219 2762.886719 1805.355469 2762.828125 1812.011719 2762.761719 C 1817.820312 2762.703125 1817.835938 2753.671875 1812.011719 2753.726562 Z M 2933.773438 2719.164062 C 2862.667969 2718.027344 2791.558594 2717.371094 2720.449219 2716.761719 C 2622.769531 2715.921875 2525.085938 2715.292969 2427.402344 2714.765625 C 2318.613281 2714.175781 2209.824219 2713.726562 2101.035156 2713.40625 C 1996.894531 2713.101562 1892.753906 2712.910156 1788.613281 2712.914062 C 1704.144531 2712.917969 1619.671875 2713.015625 1535.199219 2713.503906 C 1526.8125 2713.554688 1518.421875 2713.609375 1510.035156 2713.667969 C 1504.226562 2713.707031 1504.210938 2722.742188 1510.035156 2722.699219 C 1591.257812 2722.128906 1672.488281 2721.996094 1753.714844 2721.957031 C 1856.601562 2721.902344 1959.488281 2722.058594 2062.375 2722.332031 C 2171.453125 2722.621094 2280.535156 2723.042969 2389.613281 2723.601562 C 2489.152344 2724.109375 2588.691406 2724.71875 2688.226562 2725.527344 C 2763.210938 2726.132812 2838.199219 2726.800781 2913.179688 2727.886719 C 2920.046875 2727.984375 2926.910156 2728.089844 2933.773438 2728.199219 C 2939.585938 2728.292969 2939.589844 2719.257812 2933.773438 2719.164062 Z M 2491.457031 2765.511719 C 2448.523438 2764.730469 2405.574219 2764.6875 2362.640625 2764.449219 C 2308.167969 2764.148438 2253.695312 2763.914062 2199.222656 2763.515625 C 2179.003906 2763.367188 2158.785156 2763.246094 2138.570312 2762.878906 C 2132.753906 2762.773438 2132.753906 2771.804688 2138.570312 2771.910156 C 2181.5 2772.691406 2224.449219 2772.734375 2267.386719 2772.972656 C 2321.859375 2773.273438 2376.332031 2773.507812 2430.800781 2773.90625 C 2451.019531 2774.050781 2471.238281 2774.175781 2491.457031 2774.542969 C 2497.269531 2774.648438 2497.273438 2765.617188 2491.457031 2765.511719 Z M 778.785156 2707.3125 C 747.835938 2707.0625 716.890625 2706.796875 685.945312 2706.574219 C 675.578125 2706.5 665.210938 2706.40625 654.84375 2706.40625 C 649.03125 2706.402344 649.023438 2715.4375 654.84375 2715.4375 C 677.921875 2715.441406 700.996094 2715.71875 724.074219 2715.902344 C 755.019531 2716.148438 785.964844 2716.414062 816.914062 2716.636719 C 827.277344 2716.710938 837.644531 2716.808594 848.011719 2716.808594 C 853.824219 2716.808594 853.832031 2707.777344 848.011719 2707.777344 C 824.9375 2707.769531 801.859375 2707.496094 778.785156 2707.3125 Z M 1541.5625 1186.257812 C 1550.089844 1186.257812 1557.003906 1175.632812 1557.003906 1162.527344 C 1557.003906 1149.421875 1550.089844 1138.796875 1541.5625 1138.796875 C 1533.039062 1138.796875 1526.125 1149.421875 1526.125 1162.527344 C 1526.125 1175.632812 1533.039062 1186.257812 1541.5625 1186.257812 Z M 1689.082031 1075.460938 C 1702.324219 1073.792969 1715.558594 1078.726562 1724.34375 1088.910156 C 1725.9375 1090.761719 1729.097656 1090.546875 1730.730469 1088.910156 C 1732.5625 1087.078125 1732.328125 1084.378906 1730.730469 1082.523438 C 1720.628906 1070.8125 1704.449219 1064.488281 1689.082031 1066.425781 C 1686.660156 1066.730469 1684.566406 1068.285156 1684.566406 1070.945312 C 1684.566406 1073.148438 1686.644531 1075.769531 1689.082031 1075.460938 Z M 1687.507812 1162.527344 C 1687.507812 1175.632812 1694.421875 1186.257812 1702.949219 1186.257812 C 1711.476562 1186.257812 1718.386719 1175.632812 1718.386719 1162.527344 C 1718.386719 1149.421875 1711.476562 1138.796875 1702.949219 1138.796875 C 1694.421875 1138.796875 1687.507812 1149.421875 1687.507812 1162.527344 Z M 1600.324219 1188.964844 C 1600.230469 1191.457031 1602.175781 1193.554688 1604.664062 1193.652344 C 1604.722656 1193.65625 1604.78125 1193.65625 1604.84375 1193.65625 C 1607.257812 1193.65625 1609.257812 1191.742188 1609.351562 1189.3125 C 1611.609375 1130.226562 1605.949219 1082.707031 1605.890625 1082.230469 C 1605.589844 1079.757812 1603.347656 1078.03125 1600.863281 1078.292969 C 1598.386719 1078.59375 1596.621094 1080.84375 1596.921875 1083.320312 C 1596.980469 1083.789062 1602.554688 1130.636719 1600.324219 1188.964844 Z M 1894.542969 1217.863281 C 1893.796875 1219.8125 1894.480469 1222.015625 1896.191406 1223.199219 C 1897.902344 1224.378906 1900.207031 1224.246094 1901.765625 1222.855469 C 1911.714844 1213.984375 1919.339844 1212.460938 1922.824219 1213.839844 C 1924.378906 1214.449219 1924.460938 1215.398438 1924.492188 1215.707031 C 1924.632812 1217.230469 1923.34375 1219.917969 1919.246094 1222.476562 C 1917.125 1223.796875 1916.484375 1226.585938 1917.808594 1228.699219 C 1918.660156 1230.070312 1920.136719 1230.824219 1921.644531 1230.824219 C 1922.460938 1230.824219 1923.289062 1230.601562 1924.03125 1230.136719 C 1930.460938 1226.117188 1933.992188 1220.417969 1933.488281 1214.882812 C 1933.09375 1210.628906 1930.355469 1207.097656 1926.144531 1205.4375 C 1923.574219 1204.421875 1917.945312 1203.191406 1909.71875 1206.761719 C 1928.726562 1173.433594 1957.117188 1171.421875 1958.472656 1171.347656 C 1960.953125 1171.21875 1962.871094 1169.101562 1962.746094 1166.617188 C 1962.628906 1164.121094 1960.347656 1162.269531 1958.019531 1162.324219 C 1956.257812 1162.410156 1914.808594 1165.027344 1894.542969 1217.863281 Z M 1656.332031 1420.097656 C 1656.605469 1420.105469 1657.285156 1420.125 1658.34375 1420.125 C 1673.105469 1420.125 1761.460938 1416.378906 1839.765625 1330.566406 C 1841.449219 1328.726562 1841.320312 1325.867188 1839.480469 1324.183594 C 1837.625 1322.511719 1834.773438 1322.636719 1833.097656 1324.480469 C 1752.117188 1413.21875 1657.625 1411.09375 1656.652344 1411.070312 C 1654.136719 1410.871094 1652.070312 1412.9375 1651.984375 1415.425781 C 1651.898438 1417.917969 1653.84375 1420.007812 1656.332031 1420.097656 Z M 1604.820312 1265.390625 C 1602.730469 1271.242188 1602.496094 1278.320312 1604.160156 1285.328125 C 1607.433594 1299.113281 1616.894531 1308.605469 1626.644531 1308.605469 C 1627.796875 1308.605469 1628.953125 1308.472656 1630.101562 1308.199219 C 1635.570312 1306.902344 1640.027344 1302.472656 1642.328125 1296.042969 C 1644.417969 1290.195312 1644.652344 1283.113281 1642.988281 1276.105469 C 1639.332031 1260.699219 1627.964844 1250.652344 1617.046875 1253.234375 C 1611.578125 1254.535156 1607.121094 1258.964844 1604.820312 1265.390625 Z M 1613.328125 1268.4375 C 1614.0625 1266.378906 1615.796875 1262.816406 1619.136719 1262.023438 C 1624.113281 1260.859375 1631.582031 1267.175781 1634.203125 1278.191406 C 1635.449219 1283.441406 1635.308594 1288.839844 1633.820312 1293 C 1633.085938 1295.054688 1631.355469 1298.621094 1628.011719 1299.414062 C 1623.019531 1300.554688 1615.5625 1294.261719 1612.945312 1283.242188 C 1611.699219 1277.992188 1611.839844 1272.59375 1613.328125 1268.4375 Z M 1977.714844 1127.789062 C 1976.648438 1130.039062 1977.605469 1132.734375 1979.855469 1133.804688 C 1980.484375 1134.101562 1981.140625 1134.246094 1981.796875 1134.246094 C 1983.484375 1134.246094 1985.09375 1133.292969 1985.871094 1131.675781 C 1987.253906 1128.785156 2019.203125 1059.582031 1981.382812 942.953125 C 1980.609375 940.589844 1978.085938 939.277344 1975.691406 940.050781 C 1973.320312 940.820312 1972.019531 943.367188 1972.785156 945.742188 C 2009.414062 1058.667969 1978.035156 1127.109375 1977.714844 1127.789062 Z M 1439.796875 1135.816406 C 1440.316406 1135.816406 1440.847656 1135.722656 1441.367188 1135.53125 C 1443.703125 1134.664062 1444.894531 1132.066406 1444.03125 1129.726562 C 1443.539062 1128.402344 1396.375 995.820312 1518.359375 876.886719 C 1520.144531 875.144531 1520.179688 872.285156 1518.441406 870.5 C 1516.691406 868.707031 1513.832031 868.675781 1512.054688 870.417969 C 1385.726562 993.585938 1435.050781 1131.496094 1435.5625 1132.875 C 1436.242188 1134.691406 1437.960938 1135.816406 1439.796875 1135.816406 Z M 1922.980469 1100.464844 C 1923.84375 1101.253906 1924.9375 1101.644531 1926.023438 1101.644531 C 1927.25 1101.644531 1928.464844 1101.152344 1929.359375 1100.179688 C 1931.042969 1098.335938 1930.914062 1095.480469 1929.070312 1093.796875 C 1928.664062 1093.425781 1888.246094 1056.136719 1867.679688 1011.582031 C 1866.636719 1009.3125 1863.933594 1008.324219 1861.6875 1009.371094 C 1859.421875 1010.417969 1858.433594 1013.101562 1859.480469 1015.367188 C 1880.824219 1061.613281 1921.265625 1098.898438 1922.980469 1100.464844 Z M 1724.699219 788.757812 C 1725.285156 788.957031 1725.867188 789.160156 1726.449219 789.382812 C 1726.679688 789.46875 1726.910156 789.558594 1727.140625 789.648438 C 1727.140625 789.652344 1727.523438 789.808594 1727.699219 789.882812 C 1727.882812 789.964844 1728.113281 790.066406 1728.113281 790.066406 C 1728.339844 790.167969 1728.5625 790.269531 1728.789062 790.378906 C 1729.347656 790.640625 1729.902344 790.914062 1730.453125 791.199219 C 1732.539062 792.285156 1734.550781 793.523438 1736.460938 794.898438 C 1736.660156 795.042969 1736.859375 795.191406 1737.058594 795.335938 C 1737.144531 795.398438 1737.132812 795.390625 1737.183594 795.425781 C 1737.617188 795.773438 1738.050781 796.121094 1738.476562 796.476562 C 1739.375 797.234375 1740.246094 798.027344 1741.089844 798.847656 C 1741.929688 799.671875 1742.742188 800.523438 1743.519531 801.40625 C 1743.929688 801.867188 1744.332031 802.339844 1744.722656 802.820312 C 1744.878906 803.011719 1745.03125 803.207031 1745.191406 803.398438 C 1744.53125 802.597656 1745.308594 803.558594 1745.386719 803.664062 C 1746.796875 805.554688 1749.359375 806.710938 1751.566406 805.285156 C 1753.433594 804.082031 1754.699219 801.132812 1753.1875 799.105469 C 1746.558594 790.226562 1737.613281 783.609375 1727.097656 780.046875 C 1724.859375 779.289062 1722.0625 780.917969 1721.542969 783.203125 C 1720.972656 785.703125 1722.296875 787.945312 1724.699219 788.757812 Z M 1785.535156 818.761719 C 1785.925781 818.429688 1786.320312 818.101562 1786.726562 817.785156 C 1786.847656 817.703125 1787.609375 817.148438 1787.703125 817.085938 C 1788.648438 816.425781 1789.628906 815.808594 1790.628906 815.238281 C 1791.507812 814.738281 1792.402344 814.269531 1793.316406 813.839844 C 1793.457031 813.773438 1795 813.101562 1794.21875 813.421875 C 1794.753906 813.203125 1795.292969 812.996094 1795.835938 812.800781 C 1800.472656 811.136719 1803.625 810.621094 1808.21875 810.636719 C 1810.578125 810.648438 1812.84375 808.554688 1812.734375 806.121094 C 1812.625 803.667969 1810.75 801.613281 1808.21875 801.605469 C 1797.527344 801.566406 1787.273438 805.480469 1779.148438 812.375 C 1777.339844 813.90625 1777.453125 817.203125 1779.148438 818.761719 C 1781.074219 820.527344 1783.609375 820.398438 1785.535156 818.761719 Z M 1739.878906 829.847656 C 1736.734375 829.847656 1733.59375 829.847656 1730.453125 829.847656 C 1729.292969 829.847656 1728.078125 830.351562 1727.257812 831.171875 C 1726.476562 831.953125 1725.886719 833.238281 1725.933594 834.363281 C 1726.046875 836.8125 1727.917969 838.878906 1730.453125 838.878906 C 1733.59375 838.878906 1736.734375 838.878906 1739.878906 838.878906 C 1741.035156 838.878906 1742.253906 838.375 1743.070312 837.558594 C 1743.855469 836.773438 1744.445312 835.488281 1744.394531 834.363281 C 1744.285156 831.917969 1742.410156 829.847656 1739.878906 829.847656 Z M 2401.035156 1635.65625 C 2402.089844 1641.03125 2409.441406 1679.429688 2408.601562 1702.800781 C 2408.554688 1704.113281 2409.085938 1705.382812 2410.042969 1706.273438 C 2412.035156 1708.121094 2414.671875 1710.363281 2417.746094 1712.980469 C 2419.175781 1714.195312 2420.710938 1715.503906 2422.292969 1716.867188 L 2417.90625 1699.863281 C 2418.242188 1679.707031 2413.457031 1652.214844 2411.066406 1639.777344 C 2413.199219 1640.195312 2415.40625 1640.46875 2417.722656 1640.46875 C 2426.503906 1640.46875 2436.371094 1637.5 2445.46875 1631.746094 C 2447.71875 1630.324219 2449.925781 1628.773438 2452.097656 1627.171875 L 2449.488281 1640.636719 C 2449.011719 1643.085938 2450.609375 1645.457031 2453.0625 1645.933594 C 2453.351562 1645.988281 2453.640625 1646.015625 2453.925781 1646.015625 C 2456.042969 1646.015625 2457.9375 1644.519531 2458.355469 1642.359375 L 2463.03125 1618.257812 C 2476.789062 1605.988281 2486.824219 1593.269531 2487.398438 1592.53125 C 2488.933594 1590.570312 2488.585938 1587.726562 2486.621094 1586.191406 C 2484.652344 1584.644531 2481.804688 1585.011719 2480.28125 1586.96875 C 2480.09375 1587.207031 2461.363281 1611.015625 2440.648438 1624.113281 C 2426.320312 1633.164062 2412.960938 1632.777344 2406.609375 1628.574219 C 2402.804688 1626.058594 2401.222656 1622.105469 2402.027344 1617.144531 C 2406.480469 1589.839844 2462.390625 1541.558594 2462.957031 1541.074219 C 2464.851562 1539.453125 2465.066406 1536.597656 2463.445312 1534.707031 C 2461.820312 1532.820312 2458.96875 1532.601562 2457.074219 1534.21875 C 2454.667969 1536.289062 2398.089844 1585.148438 2393.113281 1615.691406 C 2391.773438 1623.914062 2394.679688 1631.128906 2401.035156 1635.65625 Z M 2530.296875 1775.5 C 2534.820312 1771.109375 2539.492188 1766.574219 2543.882812 1761.769531 C 2569.34375 1733.929688 2583.316406 1695.605469 2583.898438 1693.988281 C 2584.652344 1691.894531 2583.761719 1689.558594 2581.804688 1688.492188 C 2579.847656 1687.429688 2577.394531 1687.945312 2576.054688 1689.726562 C 2565.625 1703.425781 2534.007812 1738.539062 2513.8125 1737.761719 C 2508.613281 1737.503906 2504.46875 1734.757812 2501.144531 1729.363281 C 2496.769531 1722.261719 2527.292969 1678.628906 2567.789062 1634.082031 C 2569.472656 1632.238281 2569.332031 1629.378906 2567.488281 1627.703125 C 2565.632812 1626.027344 2562.78125 1626.152344 2561.109375 1628.007812 C 2551.976562 1638.050781 2538.375 1653.46875 2525.65625 1669.625 C 2525.003906 1669.929688 2524.394531 1670.339844 2523.933594 1670.957031 C 2502.488281 1699.785156 2478.238281 1709.292969 2464.828125 1705.976562 C 2461.628906 1705.179688 2457.671875 1703.246094 2456.949219 1698.546875 C 2454.832031 1684.765625 2492.101562 1639.105469 2516.089844 1613.5625 C 2517.792969 1611.742188 2517.707031 1608.882812 2515.890625 1607.175781 C 2514.082031 1605.476562 2511.214844 1605.558594 2509.503906 1607.375 C 2498.640625 1618.941406 2444.609375 1677.769531 2448.023438 1699.921875 C 2449.15625 1707.3125 2454.492188 1712.710938 2462.648438 1714.742188 C 2464.996094 1715.324219 2467.546875 1715.625 2470.269531 1715.625 C 2479.046875 1715.625 2489.617188 1712.464844 2500.652344 1705.535156 C 2493.546875 1718.027344 2490.019531 1728.519531 2493.453125 1734.101562 C 2498.386719 1742.109375 2505.089844 1746.378906 2513.378906 1746.785156 C 2529.550781 1747.574219 2548.71875 1732.351562 2562.890625 1718.226562 C 2556.546875 1730.125 2547.894531 1744.003906 2537.214844 1755.675781 C 2533.003906 1760.28125 2528.429688 1764.722656 2524.003906 1769.019531 C 2501.65625 1790.726562 2478.542969 1813.171875 2487.390625 1867.265625 C 2487.753906 1869.480469 2489.664062 1871.050781 2491.839844 1871.050781 C 2492.082031 1871.050781 2492.328125 1871.035156 2492.578125 1870.992188 C 2495.042969 1870.59375 2496.707031 1868.269531 2496.304688 1865.804688 C 2488.226562 1816.363281 2508.664062 1796.515625 2530.296875 1775.5 Z M 2614.78125 1974.933594 C 2616.261719 1960.871094 2556.132812 1946.800781 2556.132812 1946.800781 L 2553.90625 1968.648438 C 2553.90625 1968.648438 2613.605469 1986.125 2614.78125 1974.933594 Z M 1413.441406 2443.363281 C 1414.167969 2445.089844 1415.84375 2446.132812 1417.613281 2446.132812 C 1418.191406 2446.132812 1418.78125 2446.019531 1419.351562 2445.777344 C 1421.65625 2444.820312 1422.738281 2442.175781 1421.777344 2439.867188 L 1174.527344 1849.191406 L 1194.9375 1823.078125 C 1196.476562 1821.117188 1196.125 1818.273438 1194.160156 1816.742188 C 1192.195312 1815.199219 1189.359375 1815.546875 1187.820312 1817.515625 L 1167.144531 1843.972656 L 440.171875 1841.386719 C 440.167969 1841.386719 440.164062 1841.386719 440.160156 1841.386719 C 437.671875 1841.386719 435.652344 1843.398438 435.640625 1845.886719 C 435.632812 1848.378906 437.648438 1850.410156 440.144531 1850.421875 L 1166.328125 1853.003906 Z M 975.671875 2174.683594 C 978.722656 2176.171875 981.882812 2176.917969 984.980469 2176.917969 C 987.648438 2176.917969 990.265625 2176.367188 992.726562 2175.253906 C 1003.40625 2170.433594 1007.539062 2156.410156 1001.9375 2144.003906 C 999.285156 2138.132812 994.855469 2133.453125 989.460938 2130.816406 C 983.78125 2128.046875 977.71875 2127.847656 972.402344 2130.246094 C 961.722656 2135.070312 957.589844 2149.089844 963.195312 2161.5 C 965.847656 2167.367188 970.277344 2172.050781 975.671875 2174.683594 Z M 976.121094 2138.480469 C 978.945312 2137.199219 982.277344 2137.363281 985.5 2138.933594 C 989.003906 2140.644531 991.917969 2143.769531 993.703125 2147.71875 C 997.257812 2155.589844 995.152344 2164.25 989.011719 2167.023438 C 986.175781 2168.296875 982.851562 2168.140625 979.632812 2166.570312 C 976.125 2164.859375 973.210938 2161.734375 971.425781 2157.78125 C 967.875 2149.914062 969.980469 2141.25 976.121094 2138.480469 Z M 1080.121094 2453.542969 C 1083.59375 2458.113281 1091.441406 2453.617188 1087.921875 2448.984375 C 1062.285156 2415.246094 1045.191406 2375.167969 1034.667969 2334.292969 C 1031.925781 2323.644531 1029.671875 2312.875 1027.957031 2302.011719 C 1027.054688 2296.285156 1018.347656 2298.714844 1019.246094 2304.414062 C 1025.746094 2345.609375 1039.59375 2386.324219 1059.996094 2422.722656 C 1066.003906 2433.4375 1072.6875 2443.761719 1080.121094 2453.542969 Z M 999.25 2422.105469 C 1004.632812 2435.414062 1010.332031 2448.609375 1016.699219 2461.476562 C 1019.273438 2466.6875 1027.070312 2462.117188 1024.496094 2456.917969 C 1012.75 2433.175781 1003.105469 2408.394531 994.230469 2383.457031 C 984.472656 2356.042969 975.734375 2328.222656 968.492188 2300.035156 C 965.019531 2286.515625 961.894531 2272.890625 959.515625 2259.128906 C 958.53125 2253.410156 949.824219 2255.835938 950.804688 2261.53125 C 955.378906 2288.003906 962.472656 2314.054688 970.292969 2339.734375 C 978.769531 2367.574219 988.339844 2395.121094 999.25 2422.105469 Z M 918.945312 2288.792969 C 918.765625 2282.996094 909.730469 2282.96875 909.910156 2288.792969 C 911.378906 2336.105469 918.089844 2383.261719 935.125 2427.636719 C 940.023438 2440.394531 945.652344 2452.859375 951.894531 2465.011719 C 954.550781 2470.183594 962.347656 2465.621094 959.691406 2460.453125 C 938.632812 2419.449219 926.210938 2375.109375 921.53125 2329.304688 C 920.15625 2315.839844 919.363281 2302.324219 918.945312 2288.792969 Z M 1107.003906 2626.902344 C 1156.460938 2626.902344 1216.1875 2577.609375 1216.1875 2521.644531 C 1216.1875 2490.6875 1203.882812 2463.011719 1184.546875 2444.425781 L 1138.144531 2444.242188 C 1153.210938 2454.066406 1188.027344 2480.949219 1163.222656 2506.195312 C 1139.101562 2530.746094 1053.394531 2536.570312 999.191406 2527.144531 C 1003.761719 2578.261719 1060.625 2626.902344 1107.003906 2626.902344 Z M 2120.875 2252.796875 C 2120.953125 2252.804688 2121.023438 2252.804688 2121.101562 2252.804688 C 2123.492188 2252.804688 2125.488281 2250.921875 2125.605469 2248.503906 C 2125.769531 2245.09375 2142.3125 1906.707031 2163.085938 1844.398438 C 2163.871094 1842.027344 2162.589844 1839.476562 2160.226562 1838.683594 C 2157.828125 1837.910156 2155.296875 1839.175781 2154.511719 1841.539062 C 2133.347656 1905.019531 2117.257812 2234.089844 2116.582031 2248.070312 C 2116.460938 2250.5625 2118.382812 2252.679688 2120.875 2252.796875 Z M 2225.402344 2245.386719 C 2225.964844 2245.621094 2226.554688 2245.734375 2227.136719 2245.734375 C 2228.898438 2245.734375 2230.582031 2244.6875 2231.304688 2242.953125 C 2254.523438 2187.230469 2338.691406 2025.777344 2339.539062 2024.152344 C 2340.691406 2021.941406 2339.835938 2019.214844 2337.625 2018.0625 C 2335.417969 2016.90625 2332.683594 2017.765625 2331.53125 2019.976562 C 2330.683594 2021.605469 2246.335938 2183.394531 2222.964844 2239.484375 C 2222.007812 2241.78125 2223.09375 2244.429688 2225.402344 2245.386719 Z M 2191.785156 2195.070312 C 2193.226562 2195.070312 2194.644531 2194.378906 2195.519531 2193.105469 C 2210.121094 2171.757812 2244.519531 2149.8125 2244.867188 2149.597656 C 2246.972656 2148.261719 2247.601562 2145.46875 2246.265625 2143.363281 C 2244.925781 2141.257812 2242.160156 2140.617188 2240.03125 2141.960938 C 2238.554688 2142.898438 2203.722656 2165.117188 2188.0625 2188 C 2186.65625 2190.058594 2187.179688 2192.867188 2189.238281 2194.28125 C 2190.019531 2194.816406 2190.90625 2195.070312 2191.785156 2195.070312 Z M 1423.777344 2328.796875 C 1423.980469 2331.152344 1425.953125 2332.925781 1428.269531 2332.925781 C 1428.402344 2332.925781 1428.53125 2332.921875 1428.664062 2332.910156 C 1431.152344 2332.699219 1432.988281 2330.503906 1432.773438 2328.023438 C 1431.230469 2310.195312 1394.78125 1890.800781 1373.644531 1827.402344 C 1372.855469 1825.03125 1370.304688 1823.78125 1367.929688 1824.542969 C 1365.5625 1825.335938 1364.289062 1827.894531 1365.078125 1830.261719 C 1385.875 1892.652344 1423.398438 2324.445312 1423.777344 2328.796875 Z M 1924.3125 2312.050781 C 1924.949219 2312.355469 1925.617188 2312.503906 1926.277344 2312.503906 C 1927.960938 2312.503906 1929.570312 2311.566406 1930.347656 2309.957031 C 1931.4375 2307.707031 1930.496094 2305.003906 1928.253906 2303.921875 C 1736.785156 2211.269531 1602.964844 2023.699219 1601.632812 2021.8125 C 1600.199219 2019.769531 1597.375 2019.300781 1595.339844 2020.722656 C 1593.300781 2022.164062 1592.816406 2024.980469 1594.253906 2027.023438 C 1595.59375 2028.921875 1730.703125 2218.363281 1924.3125 2312.050781 Z M 2824.316406 757.175781 L 2861.261719 759.15625 C 2861.34375 759.160156 2861.425781 759.164062 2861.507812 759.164062 C 2863.890625 759.164062 2865.882812 757.292969 2866.011719 754.886719 C 2866.148438 752.394531 2864.238281 750.269531 2861.742188 750.132812 L 2824.796875 748.15625 C 2822.316406 748.085938 2820.183594 749.933594 2820.046875 752.425781 C 2819.910156 754.914062 2821.824219 757.042969 2824.316406 757.175781 Z M 2834.363281 912.789062 C 2835.042969 912.808594 2835.726562 912.820312 2836.402344 912.820312 C 2853.445312 912.820312 2867.441406 907.050781 2875.007812 896.839844 C 2880.097656 889.96875 2881.550781 881.628906 2879 873.957031 C 2878.070312 871.183594 2875.234375 870.574219 2874.023438 870.316406 C 2867.167969 868.855469 2803.164062 865.363281 2796.492188 872.628906 C 2793.171875 876.25 2794.289062 884.007812 2796.871094 890.085938 C 2799.667969 896.691406 2808.933594 912.117188 2834.363281 912.789062 Z M 2870.960938 878.878906 C 2871.753906 883.15625 2870.648438 887.558594 2867.75 891.460938 C 2861.753906 899.558594 2849.492188 904.175781 2834.597656 903.761719 C 2819.433594 903.359375 2811.691406 896.800781 2807.859375 891.367188 C 2804.296875 886.304688 2803.363281 881.128906 2803.46875 878.894531 C 2812.519531 876.316406 2859.796875 876.890625 2870.960938 878.878906 Z M 2414.753906 881.308594 C 2475.765625 882.878906 2658.582031 887.476562 2706.089844 887.476562 C 2712.601562 887.476562 2716.570312 887.390625 2717.339844 887.199219 C 2719.761719 886.597656 2721.386719 884.113281 2720.78125 881.691406 C 2720.179688 879.269531 2717.835938 877.765625 2715.457031 878.375 C 2707.394531 879.339844 2531.375 875.273438 2414.988281 872.28125 C 2414.949219 872.277344 2414.90625 872.277344 2414.871094 872.277344 C 2412.429688 872.277344 2410.417969 874.222656 2410.355469 876.675781 C 2410.289062 879.175781 2412.261719 881.246094 2414.753906 881.308594 Z M 2096.367188 2315.265625 L 2100.878906 2364.949219 C 2101.015625 2366.441406 2101.878906 2367.765625 2103.1875 2368.488281 C 2103.867188 2368.871094 2104.621094 2369.058594 2105.378906 2369.058594 C 2106.074219 2369.058594 2106.769531 2368.902344 2107.410156 2368.578125 L 2184.617188 2329.789062 C 2188.949219 2329.921875 2193.359375 2330.007812 2197.882812 2330.007812 C 2202.628906 2330.007812 2207.457031 2329.933594 2212.351562 2329.785156 C 2364.8125 2325.0625 2417.511719 2272.523438 2419.679688 2270.289062 C 2421.417969 2268.5 2421.375 2265.652344 2419.59375 2263.910156 C 2417.804688 2262.171875 2414.953125 2262.210938 2413.207031 2263.988281 C 2412.695312 2264.507812 2360.371094 2316.164062 2212.070312 2320.753906 C 2202.300781 2321.070312 2192.761719 2321.066406 2183.746094 2320.734375 C 2183.679688 2320.738281 2183.625 2320.769531 2183.5625 2320.773438 C 2182.886719 2320.777344 2182.207031 2320.890625 2181.558594 2321.21875 L 2109.28125 2357.53125 L 2105.167969 2312.289062 C 2105.09375 2311.453125 2104.742188 2310.742188 2104.289062 2310.109375 C 2103.808594 2309.011719 2102.917969 2308.097656 2101.699219 2307.660156 C 2050.949219 2289.519531 2043.480469 2258.890625 2043.359375 2258.347656 C 2042.839844 2255.921875 2040.453125 2254.34375 2038.023438 2254.867188 C 2035.582031 2255.375 2034.015625 2257.765625 2034.519531 2260.207031 C 2034.8125 2261.644531 2042.449219 2295.109375 2096.367188 2315.265625 Z M 1462.835938 2560.921875 C 1462.835938 2560.921875 1426.351562 2672.792969 1439.273438 2678.746094 C 1440.273438 2679.207031 1441.390625 2679.652344 1442.578125 2680.089844 L 2056.070312 2683.652344 C 2055.8125 2678.046875 2053.53125 2628.578125 2050.707031 2565.214844 C 1912.964844 2564.335938 1575.609375 2556.054688 1464.472656 2560.621094 C 1463.457031 2560.808594 1462.835938 2560.921875 1462.835938 2560.921875 Z M 1462.835938 2560.921875 " fill-opacity="1" fill-rule="nonzero"/></svg>