<svg xmlns="http://www.w3.org/2000/svg" xmlns:xlink="http://www.w3.org/1999/xlink" width="4608" zoomAndPan="magnify" viewBox="0 0 3456 3455.999975" height="4608" preserveAspectRatio="xMidYMid meet" version="1.0"><defs><clipPath id="866bf1c8ae"><path d="M 815.277344 813.171875 L 2641 813.171875 L 2641 2284.050781 L 815.277344 2284.050781 Z M 815.277344 813.171875 " clip-rule="nonzero"/></clipPath><clipPath id="b1f862ae3d"><path d="M 890.277344 813.171875 L 2565.722656 813.171875 C 2585.613281 813.171875 2604.691406 821.074219 2618.753906 835.136719 C 2632.820312 849.203125 2640.722656 868.28125 2640.722656 888.171875 L 2640.722656 2209.050781 C 2640.722656 2228.941406 2632.820312 2248.019531 2618.753906 2262.082031 C 2604.691406 2276.148438 2585.613281 2284.050781 2565.722656 2284.050781 L 890.277344 2284.050781 C 870.386719 2284.050781 851.308594 2276.148438 837.246094 2262.082031 C 823.179688 2248.019531 815.277344 2228.941406 815.277344 2209.050781 L 815.277344 888.171875 C 815.277344 868.28125 823.179688 849.203125 837.246094 835.136719 C 851.308594 821.074219 870.386719 813.171875 890.277344 813.171875 Z M 890.277344 813.171875 " clip-rule="nonzero"/></clipPath><clipPath id="679efdec47"><path d="M 815.277344 813.171875 L 2640.515625 813.171875 L 2640.515625 2283.84375 L 815.277344 2283.84375 Z M 815.277344 813.171875 " clip-rule="nonzero"/></clipPath><clipPath id="f0bf1957ee"><path d="M 890.277344 813.171875 L 2565.71875 813.171875 C 2585.609375 813.171875 2604.683594 821.074219 2618.75 835.136719 C 2632.816406 849.203125 2640.71875 868.28125 2640.71875 888.171875 L 2640.71875 2209.046875 C 2640.71875 2228.9375 2632.816406 2248.011719 2618.75 2262.078125 C 2604.683594 2276.144531 2585.609375 2284.046875 2565.71875 2284.046875 L 890.277344 2284.046875 C 870.386719 2284.046875 851.308594 2276.144531 837.246094 2262.078125 C 823.179688 2248.011719 815.277344 2228.9375 815.277344 2209.046875 L 815.277344 888.171875 C 815.277344 868.28125 823.179688 849.203125 837.246094 835.136719 C 851.308594 821.074219 870.386719 813.171875 890.277344 813.171875 Z M 890.277344 813.171875 " clip-rule="nonzero"/></clipPath><clipPath id="9a6c7335dc"><path d="M 1156.996094 2400.082031 L 2299 2400.082031 L 2299 2642.828125 L 1156.996094 2642.828125 Z M 1156.996094 2400.082031 " clip-rule="nonzero"/></clipPath><clipPath id="3a3bb46265"><path d="M 1194.496094 2400.082031 L 2261.503906 2400.082031 C 2282.214844 2400.082031 2299.003906 2416.871094 2299.003906 2437.582031 L 2299.003906 2605.328125 C 2299.003906 2626.039062 2282.214844 2642.828125 2261.503906 2642.828125 L 1194.496094 2642.828125 C 1173.785156 2642.828125 1156.996094 2626.039062 1156.996094 2605.328125 L 1156.996094 2437.582031 C 1156.996094 2416.871094 1173.785156 2400.082031 1194.496094 2400.082031 Z M 1194.496094 2400.082031 " clip-rule="nonzero"/></clipPath><clipPath id="84402fb060"><path d="M 1372.816406 2248.078125 L 2083.183594 2248.078125 L 2083.183594 2485.484375 L 1372.816406 2485.484375 Z M 1372.816406 2248.078125 " clip-rule="nonzero"/></clipPath><clipPath id="2bcf136bf7"><path d="M 1533.015625 1256.136719 L 1922.984375 1256.136719 L 1922.984375 1841.085938 L 1533.015625 1841.085938 Z M 1533.015625 1256.136719 " clip-rule="nonzero"/></clipPath><clipPath id="afdf4909d8"><path d="M 1728 1256.136719 L 1922.984375 1256.136719 L 1728 1841.085938 L 1533.015625 1841.085938 Z M 1728 1256.136719 " clip-rule="nonzero"/></clipPath></defs><rect x="-345.6" width="4147.2" fill="#ffffff" y="-345.599998" height="4147.19997" fill-opacity="1"/><rect x="-345.6" width="4147.2" fill="#ffffff" y="-345.599998" height="4147.19997" fill-opacity="1"/><g clip-path="url(#866bf1c8ae)"><g clip-path="url(#b1f862ae3d)"><path fill="#83c7ff" d="M 815.277344 813.171875 L 2642.386719 813.171875 L 2642.386719 2284.050781 L 815.277344 2284.050781 Z M 815.277344 813.171875 " fill-opacity="1" fill-rule="nonzero"/></g></g><g clip-path="url(#679efdec47)"><g clip-path="url(#f0bf1957ee)"><path stroke-linecap="butt" transform="matrix(0.513862, 0, 0, 0.513862, 815.278221, 813.170796)" fill="none" stroke-linejoin="miter" d="M 145.951772 0.00209933 L 3406.438459 0.00209933 C 3445.146538 0.00209933 3482.265853 15.380427 3509.639732 42.746704 C 3537.013611 70.120583 3552.391938 107.247499 3552.391938 145.955578 L 3552.391938 2716.439593 C 3552.391938 2755.147672 3537.013611 2792.274588 3509.639732 2819.640865 C 3482.265853 2847.014744 3445.146538 2862.393072 3406.438459 2862.393072 L 145.951772 2862.393072 C 107.243693 2862.393072 70.116777 2847.014744 42.7505 2819.640865 C 15.376621 2792.274588 -0.00170645 2755.147672 -0.00170645 2716.439593 L -0.00170645 145.955578 C -0.00170645 107.247499 15.376621 70.120583 42.7505 42.746704 C 70.116777 15.380427 107.243693 0.00209933 145.951772 0.00209933 Z M 145.951772 0.00209933 " stroke="#000000" stroke-width="291.90692" stroke-opacity="1" stroke-miterlimit="4"/></g></g><g clip-path="url(#9a6c7335dc)"><g clip-path="url(#3a3bb46265)"><path fill="#000000" d="M 1156.996094 2400.082031 L 2298.671875 2400.082031 L 2298.671875 2642.828125 L 1156.996094 2642.828125 Z M 1156.996094 2400.082031 " fill-opacity="1" fill-rule="nonzero"/></g></g><g clip-path="url(#84402fb060)"><path fill="#000000" d="M 1372.816406 2248.078125 L 2083.175781 2248.078125 L 2083.175781 2485.484375 L 1372.816406 2485.484375 Z M 1372.816406 2248.078125 " fill-opacity="1" fill-rule="nonzero"/></g><g clip-path="url(#2bcf136bf7)"><g clip-path="url(#afdf4909d8)"><path fill="#000000" d="M 1533.015625 1256.136719 L 1922.984375 1256.136719 L 1922.984375 1841.085938 L 1533.015625 1841.085938 Z M 1533.015625 1256.136719 " fill-opacity="1" fill-rule="nonzero"/></g></g></svg>