<svg xmlns="http://www.w3.org/2000/svg" xmlns:xlink="http://www.w3.org/1999/xlink" width="4608" zoomAndPan="magnify" viewBox="0 0 3456 3455.999975" height="4608" preserveAspectRatio="xMidYMid meet" version="1.0"><defs><clipPath id="e1a3ee9044"><path d="M 286.199219 924 L 3169 924 L 3169 2532 L 286.199219 2532 Z M 286.199219 924 " clip-rule="nonzero"/></clipPath></defs><g clip-path="url(#e1a3ee9044)"><path fill="#ffffff" d="M 2934.75 1159.664062 C 2925.570312 1150.484375 2915.777344 1141.304688 2905.984375 1132.121094 C 2803.148438 1038.46875 2679.507812 974.199219 2546.070312 944.207031 C 2487.308594 931.351562 2427.320312 924.621094 2366.113281 924.621094 L 1761.96875 924.621094 L 1761.96875 2278.582031 C 1761.96875 2318.980469 1744.832031 2355.707031 1717.898438 2382.027344 C 1692.191406 2407.125 1656.6875 2422.425781 1618.128906 2422.425781 C 1616.902344 2422.425781 1615.679688 2422.425781 1614.453125 2422.425781 C 1567.933594 2421.203125 1524.476562 2397.328125 1498.15625 2358.15625 L 1113.757812 1781.558594 L 1137.015625 1781.558594 C 1373.289062 1781.558594 1566.097656 1589.359375 1566.097656 1352.476562 C 1566.097656 1115.59375 1373.898438 924.621094 1137.628906 924.621094 L 286.199219 924.621094 L 286.199219 2531.378906 L 394.542969 2531.378906 L 394.542969 1032.960938 L 507.167969 1032.960938 L 507.167969 2531.378906 L 615.507812 2531.378906 L 615.507812 1032.960938 L 1137.015625 1032.960938 C 1313.300781 1032.960938 1457.144531 1176.804688 1457.144531 1353.089844 C 1457.144531 1529.375 1313.300781 1673.21875 1137.015625 1673.21875 L 733.03125 1673.21875 L 733.03125 1781.558594 L 983.378906 1781.558594 L 1407.566406 2418.140625 C 1454.695312 2488.53125 1533.046875 2530.765625 1617.515625 2530.765625 C 1648.121094 2530.765625 1678.113281 2525.257812 1705.046875 2514.851562 C 1746.667969 2499.550781 1782.78125 2473.230469 1810.9375 2440.175781 C 1847.664062 2396.105469 1869.699219 2339.792969 1869.699219 2277.96875 L 1869.699219 1296.777344 L 2909.65625 1296.777344 C 3003.917969 1415.523438 3060.230469 1565.488281 3060.230469 1728.304688 C 3060.230469 2111.480469 2748.671875 2423.039062 2365.5 2423.039062 L 1941.316406 2423.039062 C 1933.96875 2463.4375 1911.933594 2509.957031 1860.519531 2531.378906 L 2365.5 2531.378906 C 2516.6875 2531.378906 2662.367188 2489.757812 2787.847656 2412.019531 C 2840.488281 2379.578125 2889.457031 2341.015625 2933.527344 2296.332031 C 3085.328125 2144.53125 3168.574219 1942.539062 3168.574219 1728.304688 C 3169.796875 1513.460938 3086.550781 1311.464844 2934.75 1159.664062 Z M 1870.921875 1032.960938 L 2366.722656 1032.960938 C 2423.648438 1032.960938 2479.351562 1039.695312 2532.601562 1053.160156 C 2633.597656 1077.644531 2725.414062 1124.777344 2803.761719 1187.824219 L 1870.921875 1187.824219 Z M 1870.921875 1032.960938 " fill-opacity="1" fill-rule="nonzero"/></g></svg>